<svg xmlns="http://www.w3.org/2000/svg" xmlns:xlink="http://www.w3.org/1999/xlink"><symbol viewBox="0 0 24 24" id="accessible" xmlns="http://www.w3.org/2000/svg"><path d="M13.158 19.328a1 1 0 111.252 1.56 7.02 7.02 0 01-9.059-10.721 1 1 0 111.331 1.492 5.02 5.02 0 006.476 7.669zM11.671 1a2.724 2.724 0 110 5.449 2.724 2.724 0 010-5.45zm0 2a.725.725 0 100 1.45.725.725 0 000-1.45zm2.881 6.484v2.374h2.808a1 1 0 010 2h-3.808a1 1 0 01-1-1V9.484a6.237 6.237 0 01.004-.194L10.34 9.29l.003.195v5.537c0 .188.078.365.22.502.15.144.356.228.579.228h4.443a1 1 0 01.794.392l3.375 4.397a1 1 0 01-1.587 1.218l-3.075-4.007h-3.95a2.831 2.831 0 01-1.966-.786 2.69 2.69 0 01-.833-1.944V9.484c0-.035 0-.064-.003-.148l-.003-.152c-.008-.944.3-1.64 1.295-1.872.075-.018.152-.026.229-.026l3.268.005.195.02c.846.17 1.176.81 1.226 1.6.009.142.009.256.004.447-.003.08-.003.102-.003.126z"/></symbol><symbol viewBox="0 0 24 24" id="alarm" xmlns="http://www.w3.org/2000/svg"><path d="M18.16 2.497a.997.997 0 00-1.405.128.998.998 0 00.115 1.402l3.08 2.586a.997.997 0 001.405-.128.998.998 0 00-.115-1.402zm-10.92.128a1 1 0 01-.128 1.41l-3.054 2.56a1.006 1.006 0 01-1.413-.12.989.989 0 01.115-1.4l3.08-2.58a.999.999 0 011.4.13zM11 13.382V9a1 1 0 112 0v5a1 1 0 01-.553.894l-3 2a1 1 0 01-.894-1.788zM12 4c-4.97 0-9 4.03-9 9s4.02 9 9 9a9 9 0 000-18zm-7 9c0-3.87 3.13-7 7-7s7 3.13 7 7-3.13 7-7 7-7-3.13-7-7z"/></symbol><symbol viewBox="0 0 24 24" id="alert" xmlns="http://www.w3.org/2000/svg"><path d="M12 23C5.925 23 1 18.075 1 12S5.925 1 12 1s11 4.925 11 11-4.925 11-11 11zm0-2a9 9 0 100-18 9 9 0 000 18zM11 7a1 1 0 012 0v6a1 1 0 01-2 0zm1 11a1 1 0 110-2 1 1 0 010 2z"/></symbol><symbol viewBox="0 0 24 24" id="alert-bubble" xmlns="http://www.w3.org/2000/svg"><path d="M12 14a1 1 0 110-2 1 1 0 010 2zm-1-8a1 1 0 012 0v3a1 1 0 01-2 0zM6.293 16.293A1 1 0 017 16h12a1 1 0 001-1V5a1 1 0 00-1-1H5a1 1 0 00-1 1v13.586zM7.414 18l-3.707 3.707C3.077 22.337 2 21.891 2 21V5a3 3 0 013-3h14a3 3 0 013 3v10a3 3 0 01-3 3z"/></symbol><symbol viewBox="0 0 24 24" id="alert-fill" xmlns="http://www.w3.org/2000/svg"><path d="M12 23C5.925 23 1 18.075 1 12S5.925 1 12 1s11 4.925 11 11-4.925 11-11 11zM11 7v6a1 1 0 002 0V7a1 1 0 00-2 0zm1 11a1 1 0 100-2 1 1 0 000 2z"/></symbol><symbol viewBox="0 0 24 24" id="arrow-circle" xmlns="http://www.w3.org/2000/svg"><path d="M12 23C5.925 23 1 18.075 1 12S5.925 1 12 1s11 4.925 11 11-4.925 11-11 11zm0-2a9 9 0 100-18 9 9 0 000 18zm3.293-10.707a1 1 0 011.414 1.414l-4 4a1 1 0 01-1.414 0l-4-4a1 1 0 011.414-1.414L12 13.586z"/></symbol><symbol viewBox="0 0 24 24" id="arrow-down" xmlns="http://www.w3.org/2000/svg"><path d="M11 16.586l-5.293-5.293a1 1 0 10-1.414 1.414l7 7a1 1 0 001.414 0l7-7a1 1 0 00-1.414-1.414L13 16.586V5a1 1 0 00-2 0z"/></symbol><symbol viewBox="0 0 24 24" id="arrow-left" xmlns="http://www.w3.org/2000/svg"><path d="M7.414 11l5.293-5.293a1 1 0 10-1.414-1.414l-7 7a1 1 0 000 1.414l7 7a1 1 0 001.414-1.414L7.414 13H19a1 1 0 000-2z"/></symbol><symbol viewBox="0 0 24 24" id="arrow-right" xmlns="http://www.w3.org/2000/svg"><path d="M16.586 13l-5.293 5.293a1 1 0 101.414 1.414l7-7a1 1 0 000-1.414l-7-7a1 1 0 00-1.414 1.414L16.586 11H5a1 1 0 000 2z"/></symbol><symbol viewBox="0 0 24 24" id="arrow-up" xmlns="http://www.w3.org/2000/svg"><path d="M11 7.414l-5.293 5.293a1 1 0 11-1.414-1.414l7-7a1 1 0 011.414 0l7 7a1 1 0 01-1.414 1.414L13 7.414V19a1 1 0 01-2 0z"/></symbol></svg>